<svg xmlns="http://www.w3.org/2000/svg" viewBox="0 0 280.000000 280.000000" version="1"><path d="M129.812 2.934c-4.4.5-12.5 2.2-18 3.8-5.5 1.6-12 3.2-14.4 3.6-10.7 1.5-20.9 9.5-30.6 24-6.6 10-6.7 10.6-7.6 48l-.8 34 2.8 8c5.7 15.7 10.1 26.7 12.7 31.6 5.4 9.8 19 19.7 37.4 27 5.8 2.3 10.6 4.2 10.7 4.3.1.1.7 15.4 1.2 34.1.6 18.7 1.4 39.1 1.7 45.2.6 11.2.6 11.3 3.1 11.3h2.5l-.6-7.8c-.3-4.2-.8-24.3-1.2-44.6-.6-32.8-.5-36.8.9-36.3 3.7 1.4 23 2.9 32.6 2.5 12.1-.5 15.5-1.8 23.5-8.9 2.7-2.4 9-7.3 14-10.9 10.3-7.4 14.9-12.8 17.1-20.3 5.1-16.9 6.3-47.2 2.7-65.4-4-20-15.5-49.2-23.2-58.8-1.7-2.2-5.7-5.7-8.8-7.9-3.1-2.2-8.4-6.2-11.7-8.9-3.3-2.8-7.6-5.7-9.5-6.5-4.3-1.9-24.7-2.5-36.5-1.1zm35 5.8c2.2 1 6 3.6 8.5 5.8 2.5 2.2 7.3 5.8 10.7 8.1 7.4 5 10 8.2 15.3 19 8.4 17 14.8 37.4 17.1 54.7 2.1 16.3-.6 46.1-5.2 56.4-2.5 5.7-6.6 10.1-14.3 15.3-3.2 2.3-8.8 6.5-12.3 9.5-9.9 8.4-13.7 9.8-26.8 9.7-15-.2-25.8-1.9-37.8-6-18.9-6.6-35.1-16.6-40.6-25.2-2.6-4.1-7.2-15.1-14.2-34.2-1.9-5-2.1-7.6-2-33.5.1-15.4.6-30.9 1.2-34.5 1.4-8.9 4.6-15.4 11.5-23.6 10.3-12.2 12.4-13.5 25.2-15.9 4.2-.8 10.5-2.4 13.9-3.6 8-2.6 16.5-3.6 32.8-3.7 10.7-.1 13.7.2 17 1.7z"/><path d="M89.012 71.634c-2.1 2.3-2.2 7.5-.2 9.2.8.7 3.4 1.1 6 .8 2.9-.2 4.5.1 4.5.8 0 .6.6 1.7 1.4 2.3 1.1.9 1.5.5 2-2 1.8-9-.6-12.9-7.7-12.9-3 0-4.9.6-6 1.8zm109 17.3c-3.2.5-10.9 2.2-17.2 3.9-6.2 1.7-18.3 3.9-26.7 5-8.5 1.1-18.7 2.6-22.6 3.5-3.9.8-15.2 2.8-25.1 4.4-18 3-24.1 4.9-24.1 7.6 0 2.6 1.9 2.6 13.7.1 14.8-3.2 53.3-9.9 71.8-12.5 7.7-1.1 17.1-2.9 20.8-4.1 3.7-1.2 10.2-2.5 14.3-3 8.6-.9 11-2.3 8-4.6-2.2-1.5-4.2-1.6-12.9-.3z"/></svg>