<svg xmlns="http://www.w3.org/2000/svg" width="1718.63" height="1718.63"><g transform="translate(862.376 129.42)"><path d="M844.488 1213.987v-92.934H-856.61v92.934z" fill="#fff"/><path d="M-856.61 1121.053h1701.1v92.934" fill="none" stroke="#E1E1E1" stroke-width="12" stroke-linejoin="round" stroke-dashoffset=".8"/><path d="M830.5 1121.063L399.875 1214h49.412l394.353-84.113-4.515-8.824z" style="line-height:normal;-inkscape-font-specification:Sans;text-indent:0;text-align:start;text-decoration-line:none;text-transform:none" color="#E1E1E1" font-family="Sans" overflow="visible" fill="#E1E1E1"/><path d="M-486.388 1077.616l440.426.505 88.388 31.82 1.01 26.266H-478.81" fill="#e8e8e8" stroke="#E1E1E1" stroke-width="12" stroke-linejoin="round" stroke-dashoffset=".8"/><path d="M-46.467 1079.13l-1.5 53.713" fill="none" stroke="#E1E1E1" stroke-width="12" stroke-linejoin="round" stroke-dashoffset=".8"/><path d="M-741.957 614.966l118.693 438.406 476.792-13.132 34.375-37.16-109.27-532.77H-707.25l-37.232 34.55z" fill="#fff" stroke="#E1E1E1" stroke-width="12" stroke-linejoin="round" stroke-dashoffset=".8"/><path d="M-221.255 470.9l-35.407 38.28-61.093 102.5 93.937 409.282-168.562 5.718-45.188 21.563 291.094-8 34.375-37.156z" fill="#e8e8e8" stroke="#E1E1E1" stroke-width="12" stroke-linecap="round" stroke-linejoin="round"/><path d="M-745.493 506.88l488.914 2.02 108.09 529.32" fill="none" stroke="#E1E1E1" stroke-width="12" stroke-linejoin="round" stroke-dashoffset=".8"/><path d="M-223.575 1021.098l-94.623-408.152-423.76 2.02m422.75-2.02l60.61-103.036m109.095 530.33l-74.072-19.142-158.68 5.664" fill="none" stroke="#E1E1E1" stroke-width="12" stroke-linejoin="round" stroke-dashoffset=".8"/><path d="M-729.33 1180.652s67.68-67.68 67.68-71.72c0-4.042 47.477-387.9 47.477-387.9l234.356 2.02 31.314 124.25-36.365 244.456 79.455 63.783-93.597 25.113z" fill="#fff" stroke="#E1E1E1" stroke-width="12" stroke-linejoin="round" stroke-dashoffset=".8"/><path d="M-379.13 725.805l-2.72 1.282-45.437 378.812 27.907 74.75h.375l93.59-25.097-79.465-63.81 36.375-244.44z" fill="#e8e8e8" stroke="#E1E1E1" stroke-width="12" stroke-linejoin="round" stroke-dashoffset=".8"/><path d="M-385.878 1093.778l-40.406 13.132-234.356 1.01" fill="none" stroke="#E1E1E1" stroke-width="12" stroke-linejoin="round" stroke-dashoffset=".8"/><path d="M668.57 1116.648c-1.264-167.824-57.356-267.113-118.57-360" fill="none" stroke="#E1E1E1" stroke-width="14" stroke-linecap="round" stroke-linejoin="round" stroke-dashoffset=".8"/><path d="M678.57 379.505c56.438 94.554 36.097 239.28-30 331.43-66.094 92.148-207.194 156.16-314.284 148.57-107.09-7.59-190.798-97.192-230-187.143-39.203-89.95-30.503-211.344 21.428-291.428 51.932-80.084 148.603-126.88 250-127.143 101.398-.26 246.42 31.16 302.857 125.716z" fill="#fff" stroke="#E1E1E1" stroke-width="16" stroke-linecap="round" stroke-linejoin="round" stroke-dashoffset=".8"/><path d="M62.95 547.903c23.864 3.59 39.282 8.063 107.43 8.362 14.184.063 30.02-7.317 30.752-17.328" fill="none" stroke="#E1E1E1" stroke-width="12" stroke-linecap="round" stroke-linejoin="round" stroke-dashoffset=".8"/><path d="M88.893 624.058c29.884 8.08 72.606 10.153 90.14-6.967 17.53-17.12 6.835-59.45 2.794-67.53" fill="none" stroke="#E1E1E1" stroke-width="12" stroke-linejoin="round" stroke-dashoffset=".8"/><path d="M270.745 540.654c-2.183 21.868 18.49 22.653 35.89 20.21 64.54-9.057 113.267-21.882 160.695-36.205 22.954 40.007 4.333 81.32-17.713 96.303-36.266 24.645-103.46 25.506-138.01.327-21.933-15.984-25.665-36.967-21.786-58.214" fill="none" stroke="#E1E1E1" stroke-width="12" stroke-linecap="round" stroke-linejoin="round" stroke-dashoffset=".8"/><circle transform="translate(108.193 199.24) scale(.66667)" cx="327.794" cy="590.217" r="15.152" fill="#d6d6d6"/><circle transform="translate(-101.954 193.204) scale(.66667)" cx="327.794" cy="590.217" r="15.152" fill="#d6d6d6"/><path d="M205 713.076c30.174-23.822 56.735-19.52 87.857 2.143" fill="none" stroke="#E1E1E1" stroke-width="6" stroke-linecap="round"/><path d="M602.857 848.076c4.413 91.874-31.512 242.2-78.57 290C513.2 1016.063 430.337 689.74 230 689.506c-134.33-.16-130.104 276.372-79.963 428.82 8.08 24.567 12.98 20.664 31.537 10.543 160.7-87.64 229.534-198.26 319.403-303.617" fill="none" stroke="#E1E1E1" stroke-width="14" stroke-linecap="round" stroke-linejoin="round" stroke-dashoffset=".8"/><path d="M226.7 537c1.105 5.85-1.082 18.124-7.43 21.608m19.236-21.436c-.836 9.992 1.712 14.86 7.09 22.57" fill="none" stroke="#E1E1E1" stroke-width="7" stroke-linecap="round" stroke-linejoin="round" stroke-dashoffset=".8"/><path d="M234.652 746.054c8.447-4.858 26.123-5.24 35.45 2.493" fill="none" stroke="#E1E1E1" stroke-width="6" stroke-linecap="round"/><path d="M-256.58 510.747l33.784-37.997" fill="#fff" stroke="#E1E1E1" stroke-width="12"/></g></svg>